<?xml version="1.0" encoding="utf-8"?>
<!-- Generator: Adobe Illustrator 22.1.0, SVG Export Plug-In . SVG Version: 6.00 Build 0)  -->
<svg version="1.1" id="Capa_1" xmlns="http://www.w3.org/2000/svg" xmlns:xlink="http://www.w3.org/1999/xlink" x="0px" y="0px"
	 viewBox="0 0 509.9 509.9" style="enable-background:new 0 0 509.9 509.9;" xml:space="preserve">
<style type="text/css">
	.st0{fill:#231F20;}
</style>
<path class="st0" d="M254.9,509.9c-140,0-254.4-114.4-254.4-254.4S114.9,0,254.9,0s254.4,114.4,254.4,254.4S396,509.9,254.9,509.9z
	 M254.9,32.1C132,32.1,32.6,131.5,32.6,254.4S132,476.8,254.9,476.8s222.3-99.4,222.3-222.3S377.9,32.1,254.9,32.1z"/>
<path class="st0" d="M390.9,263.3c-3,3-6.8,5.3-11.3,5.3H255c-5.3-0.8-9.8-2.3-12.8-5.3c-3-3-4.5-7.6-5.3-11.3v-94.5
	c0-9.1,6.8-15.9,15.9-15.9c9.1,0,15.9,6.8,15.9,15.9v79.4h109.4c9.1,0,15.9,6.8,15.9,15.9C394.7,256.5,393.9,260.2,390.9,263.3z"/>
<circle class="st0" cx="253.9" cy="77.9" r="15.9"/>
<circle class="st0" cx="253.9" cy="430.9" r="15.9"/>
<circle class="st0" cx="430.3" cy="254.4" r="15.9"/>
<circle class="st0" cx="77.4" cy="254.4" r="15.9"/>
</svg>
