<?xml version="1.0" encoding="utf-8"?>
<!-- Generator: Adobe Illustrator 22.1.0, SVG Export Plug-In . SVG Version: 6.00 Build 0)  -->
<svg version="1.1" id="Capa_1" xmlns="http://www.w3.org/2000/svg" xmlns:xlink="http://www.w3.org/1999/xlink" x="0px" y="0px"
	 viewBox="0 0 509.9 509.9" style="enable-background:new 0 0 509.9 509.9;" xml:space="preserve">
<style type="text/css">
	.st0{fill:#231F20;}
</style>
<path class="st0" d="M254.4,0C133.6,0,28.9,85.5,6.4,204.2c-1.1,7.5-2.1,13.9-3.2,20.3c-1.1,9.6-2.1,20.3-2.1,31
	c0,62.2,21.9,119.8,61.5,166.2c-12,13.8-26.5,24.8-43,32.6c-4.1,1-7.7,3.7-9.9,7.5c-5.3,8.6-2.1,18.2,5.3,22.4
	c24.6,13.9,52.4,21.4,80.2,21.4c22.8,0,44.7-4.2,65.1-13.4c30.1,12.1,61.2,17.7,94.2,17.7c141.1,0,254.4-114.4,254.4-255.5
	C508.8,114.4,394.4,0,254.4,0z"/>
</svg>
